<svg width="103" height="42" viewBox="0 0 103 42" fill="none" xmlns="http://www.w3.org/2000/svg">
<path d="M59.587 27.0375L60.0745 30.9875C60.1995 32.025 59.087 32.75 58.1995 32.2125L53.8745 29.6375C53.5745 29.4625 53.4995 29.0875 53.662 28.7875C54.287 27.6375 54.6245 26.3375 54.6245 25.0375C54.6245 20.4625 50.6995 16.7375 45.8745 16.7375C44.887 16.7375 43.9245 16.8875 43.0245 17.1875C42.562 17.3375 42.112 16.9125 42.2245 16.4375C43.362 11.8875 47.737 8.5 52.962 8.5C59.062 8.5 63.9995 13.1125 63.9995 18.8C63.9995 22.175 62.262 25.1625 59.587 27.0375Z" fill="#D9D9D9"/>
<path d="M52.75 25.0383C52.75 26.5258 52.2 27.9008 51.275 28.9883C50.0375 30.4883 48.075 31.4508 45.875 31.4508L42.6125 33.3883C42.0625 33.7258 41.3625 33.2633 41.4375 32.6258L41.75 30.1633C40.075 29.0008 39 27.1383 39 25.0383C39 22.8383 40.175 20.9008 41.975 19.7508C43.0875 19.0258 44.425 18.6133 45.875 18.6133C49.675 18.6133 52.75 21.4883 52.75 25.0383Z" fill="#D9D9D9"/>
</svg>
