<svg width="910" height="186" viewBox="0 0 910 186" fill="none" xmlns="http://www.w3.org/2000/svg">
<path d="M0.5 186V67.0751H9.92542V52.672H25.087V66.6628H40.6591V176.946H46.8059H53.362V147.318H69.3435V138.265H85.7344V146.083H92.2905V130.858H118.516V121.805H129.171V129.623H135.727V80.6548H142.694V60.4914L146.791 57.199L151.299 60.4914V78.1858H155.807V68.7207H175.579V78.3907H181.111V161.721H183.877V94.7481H196.478V82.0943H215.533V92.2791H218.606V179.621H266.243V164.19H269.931V23.1472H274.849V17.9005H284.069V0H294.826V2.46904H301.894V16.9746H306.812V129.316H316.954V120.674H328.325V116.045H348.302V174.376H359.059V109.564H371.967V98.7615H389.793V107.712H395.018V179.622H404.852V78.0833H415.917V62.9605H434.971V76.8488H438.045V130.242H446.036V108.329H454.334V94.4407L459.866 91.0458L464.476 94.4407V106.786H480.457V137.957H484.145V58.9483H518.874V173.45H531.168V146.908H538.237V129.316H544.691V116.045H557.906V130.242H572.351V178.079H579.42V108.329H613.227V178.079H625.521V24.999H640.58V1.23452H657.791V24.3817H661.786V178.388H664.86V108.638H702.355V174.067H714.034V163.265H734.318V168.203H749.377V181.783H755.831V107.403L766.435 96.7554H785.643V159.253H793.941V170.981H837.89V179.622H844.345V146.599H861.248V137.957H878.152V144.439H884.913V76.2315H893.211V69.4417H900.28H909.5V184.869C909.5 184.869 0.602036 185.898 0.5 186Z" fill="#2E7D32"/>
</svg>
