<svg width="31" height="30" viewBox="0 0 31 30" fill="none" xmlns="http://www.w3.org/2000/svg">
<path d="M26.5389 10.0125L18.3514 3.46252C16.7514 2.18752 14.2514 2.17502 12.6639 3.45002L4.47642 10.0125C3.30142 10.95 2.58892 12.825 2.83892 14.3L4.41392 23.725C4.77642 25.8375 6.73892 27.5 8.87642 27.5H22.1264C24.2389 27.5 26.2389 25.8 26.6014 23.7125L28.1764 14.2875C28.4014 12.825 27.6889 10.95 26.5389 10.0125ZM16.4389 22.5C16.4389 23.0125 16.0139 23.4375 15.5014 23.4375C14.9889 23.4375 14.5639 23.0125 14.5639 22.5V18.75C14.5639 18.2375 14.9889 17.8125 15.5014 17.8125C16.0139 17.8125 16.4389 18.2375 16.4389 18.75V22.5Z" fill="#D9D9D9"/>
</svg>
