<svg width="30" height="30" viewBox="0 0 30 30" fill="none" xmlns="http://www.w3.org/2000/svg">
<path d="M11.5625 6.25C11.5625 4.35 13.1 2.8125 15 2.8125C16.9 2.8125 18.4375 4.35 18.4375 6.25C18.4375 8.15 16.9 9.6875 15 9.6875C13.1 9.6875 11.5625 8.15 11.5625 6.25ZM16.5625 6.25C16.5625 5.3875 15.8625 4.6875 15 4.6875C14.1375 4.6875 13.4375 5.3875 13.4375 6.25C13.4375 7.1125 14.1375 7.8125 15 7.8125C15.8625 7.8125 16.5625 7.1125 16.5625 6.25Z" fill="#EF6C00"/>
<path d="M11.5625 23.75C11.5625 21.85 13.1 20.3125 15 20.3125C16.9 20.3125 18.4375 21.85 18.4375 23.75C18.4375 25.65 16.9 27.1875 15 27.1875C13.1 27.1875 11.5625 25.65 11.5625 23.75ZM16.5625 23.75C16.5625 22.8875 15.8625 22.1875 15 22.1875C14.1375 22.1875 13.4375 22.8875 13.4375 23.75C13.4375 24.6125 14.1375 25.3125 15 25.3125C15.8625 25.3125 16.5625 24.6125 16.5625 23.75Z" fill="#EF6C00"/>
<path d="M11.5625 15C11.5625 13.1 13.1 11.5625 15 11.5625C16.9 11.5625 18.4375 13.1 18.4375 15C18.4375 16.9 16.9 18.4375 15 18.4375C13.1 18.4375 11.5625 16.9 11.5625 15ZM16.5625 15C16.5625 14.1375 15.8625 13.4375 15 13.4375C14.1375 13.4375 13.4375 14.1375 13.4375 15C13.4375 15.8625 14.1375 16.5625 15 16.5625C15.8625 16.5625 16.5625 15.8625 16.5625 15Z" fill="#EF6C00"/>
</svg>
