<svg width="44" height="44" viewBox="0 0 44 44" fill="none" xmlns="http://www.w3.org/2000/svg">
<path d="M16.4987 19.7604C13.712 19.7604 11.457 17.5567 11.457 14.8333C11.457 12.11 13.712 9.90625 16.4987 9.90625C19.2854 9.90625 21.5404 12.11 21.5404 14.8333C21.5404 17.5567 19.2854 19.7604 16.4987 19.7604ZM16.4987 12.5937C15.2337 12.5937 14.207 13.5971 14.207 14.8333C14.207 16.0696 15.2337 17.0729 16.4987 17.0729C17.7637 17.0729 18.7904 16.0696 18.7904 14.8333C18.7904 13.5971 17.7637 12.5937 16.4987 12.5937Z" fill="#2E7D32"/>
<path d="M27.5013 41.2591H16.5013C6.5463 41.2591 2.29297 37.1024 2.29297 27.3737V16.6237C2.29297 6.89495 6.5463 2.73828 16.5013 2.73828H23.8346C24.5863 2.73828 25.2096 3.34745 25.2096 4.08203C25.2096 4.81661 24.5863 5.42578 23.8346 5.42578H16.5013C8.04963 5.42578 5.04297 8.36411 5.04297 16.6237V27.3737C5.04297 35.6333 8.04963 38.5716 16.5013 38.5716H27.5013C35.953 38.5716 38.9596 35.6333 38.9596 27.3737V18.4154C38.9596 17.6808 39.583 17.0716 40.3346 17.0716C41.0863 17.0716 41.7096 17.6808 41.7096 18.4154V27.3737C41.7096 37.1024 37.4563 41.2591 27.5013 41.2591Z" fill="#2E7D32"/>
<path d="M38.9583 10.8008H28.875C28.1233 10.8008 27.5 10.1916 27.5 9.45703C27.5 8.72245 28.1233 8.11328 28.875 8.11328H38.9583C39.71 8.11328 40.3333 8.72245 40.3333 9.45703C40.3333 10.1916 39.71 10.8008 38.9583 10.8008Z" fill="#2E7D32"/>
<path d="M33.918 15.7292C33.1663 15.7292 32.543 15.12 32.543 14.3854V4.53125C32.543 3.79667 33.1663 3.1875 33.918 3.1875C34.6696 3.1875 35.293 3.79667 35.293 4.53125V14.3854C35.293 15.12 34.6696 15.7292 33.918 15.7292Z" fill="#2E7D32"/>
<path d="M4.89375 35.7964C4.45375 35.7964 4.01375 35.5814 3.75708 35.2052C3.33541 34.596 3.50041 33.7539 4.12375 33.3418L13.1621 27.4114C15.1421 26.1214 17.8737 26.2647 19.6704 27.7518L20.2754 28.2714C21.1921 29.0418 22.7504 29.0418 23.6487 28.2714L31.2754 21.8752C33.2371 20.2447 36.2804 20.2447 38.2421 21.8752L41.2304 24.3835C41.7988 24.8672 41.8721 25.7093 41.3771 26.2827C40.8821 26.8381 40.0204 26.9097 39.4338 26.426L36.4454 23.9177C35.5287 23.1472 33.9704 23.1472 33.0721 23.9177L25.4454 30.3139C23.5021 31.9443 20.4404 31.9443 18.4787 30.3139L17.8737 29.7943C17.0304 29.0956 15.6371 29.0239 14.7021 29.651L5.68208 35.5814C5.42541 35.7247 5.15041 35.7964 4.89375 35.7964Z" fill="#2E7D32"/>
</svg>
