<svg width="44" height="44" viewBox="0 0 44 44" fill="none" xmlns="http://www.w3.org/2000/svg">
<path d="M9.91759 39.4695C7.86425 39.4695 6.56259 38.7887 5.73759 37.9825C4.12425 36.4058 2.98759 33.0554 6.61759 25.9425L8.21259 22.8429C8.41425 22.4308 8.41425 21.5708 8.21259 21.1587L6.61759 18.0591C2.96925 10.9462 4.12425 7.57787 5.73759 6.01912C7.33259 4.44245 10.7793 3.3137 18.0393 6.87912L33.7326 14.5475C37.6376 16.4466 39.7826 19.0983 39.7826 22.0008C39.7826 24.9033 37.6376 27.555 33.7509 29.4541L18.0576 37.1225C14.5009 38.8604 11.8609 39.4695 9.91759 39.4695ZM9.91759 7.21954C8.92759 7.21954 8.15759 7.45245 7.68092 7.91829C6.34259 9.20829 6.87425 12.5587 9.07425 16.8408L10.6693 19.9583C11.2559 21.1229 11.2559 22.8787 10.6693 24.0433L9.07425 27.1429C6.87425 31.4429 6.34259 34.7754 7.68092 36.0654C9.00092 37.3733 12.4293 36.8537 16.8293 34.7037L32.5226 27.0354C35.4009 25.6379 37.0326 23.7925 37.0326 21.9829C37.0326 20.1733 35.3826 18.3279 32.5043 16.9304L16.8109 9.27995C14.0243 7.91829 11.6226 7.21954 9.91759 7.21954Z" fill="#EF6C00"/>
<path d="M19.8727 23.3438H9.97266C9.22099 23.3438 8.59766 22.7346 8.59766 22C8.59766 21.2654 9.22099 20.6562 9.97266 20.6562H19.8727C20.6243 20.6562 21.2477 21.2654 21.2477 22C21.2477 22.7346 20.6243 23.3438 19.8727 23.3438Z" fill="#EF6C00"/>
</svg>
