<svg width="31" height="30" viewBox="0 0 31 30" fill="none" xmlns="http://www.w3.org/2000/svg">
<path d="M25.625 11.5268C23.3625 11.5268 22.4375 9.92675 23.5625 7.96425C24.2125 6.82675 23.825 5.37675 22.6875 4.72675L20.525 3.48925C19.5375 2.90175 18.2625 3.25175 17.675 4.23925L17.5375 4.47675C16.4125 6.43925 14.5625 6.43925 13.425 4.47675L13.2875 4.23925C12.725 3.25175 11.45 2.90175 10.4625 3.48925L8.3 4.72675C7.1625 5.37675 6.775 6.83925 7.425 7.97675C8.5625 9.92675 7.6375 11.5268 5.375 11.5268C4.075 11.5268 3 12.5893 3 13.9018V16.1018C3 17.4018 4.0625 18.4768 5.375 18.4768C7.6375 18.4768 8.5625 20.0767 7.425 22.0392C6.775 23.1768 7.1625 24.6268 8.3 25.2768L10.4625 26.5143C11.45 27.1018 12.725 26.7518 13.3125 25.7643L13.45 25.5268C14.575 23.5643 16.425 23.5643 17.5625 25.5268L17.7 25.7643C18.2875 26.7518 19.5625 27.1018 20.55 26.5143L22.7125 25.2768C23.85 24.6268 24.2375 23.1642 23.5875 22.0392C22.45 20.0767 23.375 18.4768 25.6375 18.4768C26.9375 18.4768 28.0125 17.4143 28.0125 16.1018V13.9018C28 12.6018 26.9375 11.5268 25.625 11.5268ZM15.5 19.0643C13.2625 19.0643 11.4375 17.2393 11.4375 15.0018C11.4375 12.7643 13.2625 10.9393 15.5 10.9393C17.7375 10.9393 19.5625 12.7643 19.5625 15.0018C19.5625 17.2393 17.7375 19.0643 15.5 19.0643Z" fill="#D9D9D9"/>
</svg>
