<svg width="12" height="14" viewBox="0 0 12 14" fill="none" xmlns="http://www.w3.org/2000/svg">
<path fill-rule="evenodd" clip-rule="evenodd" d="M6.00112 13.1272L6.48188 12.5855C7.0274 11.9607 7.51807 11.368 7.95464 10.8042L8.31502 10.3287C9.81978 8.3013 10.5725 6.69215 10.5725 5.50282C10.5725 2.96415 8.52607 0.90625 6.00112 0.90625C3.47616 0.90625 1.42969 2.96415 1.42969 5.50282C1.42969 6.69215 2.18245 8.3013 3.68721 10.3287L4.04759 10.8042C4.6704 11.6022 5.32201 12.3765 6.00112 13.1272Z" stroke="#808080" stroke-linecap="round" stroke-linejoin="round"/>
<path d="M6.00242 7.38374C7.05439 7.38374 7.90718 6.53095 7.90718 5.47898C7.90718 4.42701 7.05439 3.57422 6.00242 3.57422C4.95045 3.57422 4.09766 4.42701 4.09766 5.47898C4.09766 6.53095 4.95045 7.38374 6.00242 7.38374Z" stroke="#808080" stroke-linecap="round" stroke-linejoin="round"/>
</svg>
