<svg width="184" height="50" viewBox="0 0 184 50" fill="none" xmlns="http://www.w3.org/2000/svg">
<path d="M0 50V0H20.8496C24.5931 0 27.7262 0.528971 30.249 1.58691C32.7881 2.64486 34.6924 4.12598 35.9619 6.03027C37.2477 7.93457 37.8906 10.14 37.8906 12.6465C37.8906 14.5508 37.4919 16.2516 36.6943 17.749C35.8968 19.2301 34.7982 20.459 33.3984 21.4355C31.9987 22.4121 30.3792 23.0957 28.54 23.4863V23.9746C30.5583 24.0723 32.4219 24.6175 34.1309 25.6104C35.8561 26.6032 37.2396 27.9867 38.2812 29.7607C39.3229 31.5186 39.8438 33.6019 39.8438 36.0107C39.8438 38.6963 39.1602 41.097 37.793 43.2129C36.4258 45.3125 34.4482 46.9727 31.8604 48.1934C29.2725 49.3978 26.1312 50 22.4365 50H0ZM12.085 40.2588H19.5557C22.1761 40.2588 24.1048 39.7624 25.3418 38.7695C26.5951 37.7767 27.2217 36.3932 27.2217 34.6191C27.2217 33.3333 26.9206 32.2266 26.3184 31.2988C25.7161 30.3548 24.8617 29.6305 23.7549 29.126C22.6481 28.6051 21.3216 28.3447 19.7754 28.3447H12.085V40.2588ZM12.085 20.5566H18.7744C20.0928 20.5566 21.2646 20.3369 22.29 19.8975C23.3154 19.458 24.113 18.8232 24.6826 17.9932C25.2686 17.1631 25.5615 16.1621 25.5615 14.9902C25.5615 13.3138 24.9674 11.9954 23.7793 11.0352C22.5911 10.0749 20.988 9.59473 18.9697 9.59473H12.085V20.5566Z" fill="#2E7D32"/>
<path d="M62.8052 33.7041H56.7017C56.6203 33.0775 56.4535 32.5119 56.2012 32.0073C55.9489 31.5028 55.6152 31.0715 55.2002 30.7134C54.7852 30.3553 54.2928 30.0827 53.7231 29.8955C53.1616 29.7002 52.5391 29.6025 51.8555 29.6025C50.6429 29.6025 49.5972 29.8996 48.7183 30.4937C47.8475 31.0877 47.1761 31.9463 46.7041 33.0693C46.2402 34.1924 46.0083 35.5514 46.0083 37.1465C46.0083 38.8066 46.2443 40.1982 46.7163 41.3213C47.1965 42.4362 47.8678 43.2785 48.7305 43.8481C49.6012 44.4097 50.6307 44.6904 51.8188 44.6904C52.4862 44.6904 53.0924 44.605 53.6377 44.4341C54.1911 44.2632 54.6753 44.015 55.0903 43.6895C55.5135 43.3558 55.8594 42.953 56.1279 42.481C56.4046 42.0008 56.5959 41.4596 56.7017 40.8574L62.8052 40.894C62.6994 42.0008 62.3779 43.0913 61.8408 44.1655C61.3118 45.2397 60.5835 46.2204 59.6558 47.1074C58.728 47.9863 57.5968 48.6862 56.2622 49.207C54.9357 49.7279 53.4139 49.9883 51.6968 49.9883C49.4344 49.9883 47.408 49.4919 45.6177 48.499C43.8354 47.498 42.4276 46.0413 41.394 44.1289C40.3605 42.2165 39.8438 39.889 39.8438 37.1465C39.8438 34.3958 40.3687 32.0643 41.4185 30.1519C42.4683 28.2394 43.8883 26.7868 45.6787 25.7939C47.4691 24.8011 49.4751 24.3047 51.6968 24.3047C53.2104 24.3047 54.6102 24.5163 55.896 24.9395C57.1818 25.3545 58.313 25.9648 59.2896 26.7705C60.2661 27.568 61.0596 28.5487 61.6699 29.7124C62.2803 30.8761 62.6587 32.2067 62.8052 33.7041Z" fill="#EF6C00"/>
<path d="M75.0153 50.0005C73.0459 50.0005 71.3532 49.5977 69.9371 48.792C68.5293 47.9782 67.4428 46.847 66.6779 45.3984C65.921 43.9417 65.5426 42.2531 65.5426 40.3325C65.5426 38.4038 65.921 36.7152 66.6779 35.2666C67.4428 33.8099 68.5293 32.6787 69.9371 31.873C71.3532 31.0592 73.0459 30.6523 75.0153 30.6523C76.9847 30.6523 78.6733 31.0592 80.0812 31.873C81.4972 32.6787 82.5836 33.8099 83.3405 35.2666C84.1054 36.7152 84.4879 38.4038 84.4879 40.3325C84.4879 42.2531 84.1054 43.9417 83.3405 45.3984C82.5836 46.847 81.4972 47.9782 80.0812 48.792C78.6733 49.5977 76.9847 50.0005 75.0153 50.0005ZM75.0519 45.4961C75.768 45.4961 76.3743 45.2764 76.8707 44.8369C77.3671 44.3975 77.7456 43.7871 78.006 43.0059C78.2745 42.2246 78.4088 41.3213 78.4088 40.2959C78.4088 39.2542 78.2745 38.3428 78.006 37.5615C77.7456 36.7803 77.3671 36.1699 76.8707 35.7305C76.3743 35.291 75.768 35.0713 75.0519 35.0713C74.3113 35.0713 73.6847 35.291 73.172 35.7305C72.6674 36.1699 72.2809 36.7803 72.0123 37.5615C71.7519 38.3428 71.6217 39.2542 71.6217 40.2959C71.6217 41.3213 71.7519 42.2246 72.0123 43.0059C72.2809 43.7871 72.6674 44.3975 73.172 44.8369C73.6847 45.2764 74.3113 45.4961 75.0519 45.4961Z" fill="#EF6C00"/>
<path d="M93.515 38.9531V49.6465H87.5458V30.8965H93.222V34.3389H93.4296C93.8446 33.1914 94.5526 32.2922 95.5536 31.6411C96.5546 30.9819 97.7468 30.6523 99.1303 30.6523C100.449 30.6523 101.592 30.9494 102.56 31.5435C103.537 32.1294 104.294 32.9513 104.831 34.0093C105.376 35.0591 105.645 36.2879 105.637 37.6958V49.6465H99.6674V38.8677C99.6755 37.826 99.411 37.0122 98.8739 36.4263C98.3449 35.8403 97.6084 35.5474 96.6644 35.5474C96.0378 35.5474 95.4844 35.6857 95.0043 35.9624C94.5323 36.231 94.1661 36.6175 93.9056 37.1221C93.6534 37.6266 93.5232 38.237 93.515 38.9531Z" fill="#EF6C00"/>
<path d="M115.302 38.9531V49.6465H109.332V30.8965H115.009V34.3389H115.216C115.631 33.1914 116.339 32.2922 117.34 31.6411C118.341 30.9819 119.533 30.6523 120.917 30.6523C122.235 30.6523 123.378 30.9494 124.347 31.5435C125.323 32.1294 126.08 32.9513 126.617 34.0093C127.163 35.0591 127.431 36.2879 127.423 37.6958V49.6465H121.454V38.8677C121.462 37.826 121.198 37.0122 120.66 36.4263C120.131 35.8403 119.395 35.5474 118.451 35.5474C117.824 35.5474 117.271 35.6857 116.791 35.9624C116.319 36.231 115.953 36.6175 115.692 37.1221C115.44 37.6266 115.31 38.237 115.302 38.9531Z" fill="#EF6C00"/>
<path d="M139.883 50.0005C137.922 50.0005 136.229 49.6139 134.805 48.8408C133.389 48.0596 132.299 46.9487 131.534 45.5083C130.777 44.0597 130.399 42.3385 130.399 40.3447C130.399 38.4079 130.781 36.7152 131.546 35.2666C132.311 33.8099 133.389 32.6787 134.781 31.873C136.172 31.0592 137.812 30.6523 139.7 30.6523C141.035 30.6523 142.256 30.8599 143.362 31.2749C144.469 31.6899 145.425 32.3044 146.231 33.1182C147.037 33.932 147.663 34.937 148.111 36.1333C148.559 37.3215 148.782 38.6846 148.782 40.2227V41.7119H132.486V38.2451H143.228C143.22 37.6104 143.069 37.0448 142.776 36.5483C142.484 36.0519 142.081 35.6654 141.568 35.3887C141.063 35.1038 140.482 34.9614 139.822 34.9614C139.155 34.9614 138.557 35.112 138.028 35.4131C137.499 35.7061 137.08 36.1089 136.771 36.6216C136.461 37.1261 136.299 37.6999 136.282 38.3428V41.8706C136.282 42.6356 136.433 43.307 136.734 43.8848C137.035 44.4544 137.462 44.8979 138.016 45.2153C138.569 45.5327 139.228 45.6914 139.993 45.6914C140.522 45.6914 141.002 45.6182 141.434 45.4717C141.865 45.3252 142.235 45.1095 142.545 44.8247C142.854 44.5399 143.086 44.1899 143.24 43.7749L148.721 43.9336C148.493 45.1624 147.993 46.2326 147.22 47.144C146.455 48.0474 145.45 48.7513 144.205 49.2559C142.96 49.7523 141.519 50.0005 139.883 50.0005Z" fill="#EF6C00"/>
<path d="M160.583 50.0005C158.606 50.0005 156.909 49.5936 155.493 48.7798C154.085 47.966 153.003 46.8348 152.246 45.3862C151.489 43.9295 151.111 42.245 151.111 40.3325C151.111 38.4119 151.489 36.7274 152.246 35.2788C153.011 33.8221 154.097 32.6868 155.505 31.873C156.921 31.0592 158.61 30.6523 160.571 30.6523C162.305 30.6523 163.814 30.9657 165.1 31.5923C166.394 32.2189 167.403 33.106 168.127 34.2534C168.86 35.3927 169.246 36.7314 169.287 38.2695H163.709C163.595 37.3092 163.269 36.5565 162.732 36.0112C162.203 35.466 161.511 35.1934 160.657 35.1934C159.965 35.1934 159.359 35.3887 158.838 35.7793C158.317 36.1618 157.91 36.7314 157.617 37.4883C157.332 38.237 157.19 39.1647 157.19 40.2715C157.19 41.3783 157.332 42.3141 157.617 43.0791C157.91 43.8359 158.317 44.4097 158.838 44.8003C159.359 45.1828 159.965 45.374 160.657 45.374C161.21 45.374 161.698 45.256 162.122 45.02C162.553 44.784 162.907 44.4382 163.184 43.9824C163.46 43.5186 163.635 42.957 163.709 42.2978H169.287C169.23 43.8441 168.844 45.195 168.127 46.3506C167.419 47.5062 166.423 48.4054 165.137 49.0483C163.859 49.6831 162.341 50.0005 160.583 50.0005Z" fill="#EF6C00"/>
<path d="M182.925 30.8965V35.291H171.097V30.8965H182.925ZM173.575 26.4043H179.544V43.7505C179.544 44.1167 179.601 44.4137 179.715 44.6416C179.837 44.8613 180.012 45.02 180.24 45.1177C180.468 45.2072 180.74 45.252 181.058 45.252C181.286 45.252 181.526 45.2316 181.778 45.1909C182.038 45.1421 182.234 45.1014 182.364 45.0688L183.267 49.3779C182.982 49.4593 182.58 49.561 182.059 49.6831C181.546 49.8052 180.932 49.8825 180.215 49.915C178.816 49.9801 177.615 49.8174 176.614 49.4268C175.622 49.028 174.861 48.4095 174.332 47.5713C173.811 46.7331 173.559 45.6792 173.575 44.4097V26.4043Z" fill="#EF6C00"/>
</svg>
