<svg width="42" height="19" viewBox="0 0 42 19" fill="none" xmlns="http://www.w3.org/2000/svg">
<path d="M16.624 7.09091H11.8172C11.7831 6.69318 11.6922 6.33239 11.5445 6.00852C11.4025 5.68466 11.2036 5.40625 10.9479 5.17329C10.6979 4.93466 10.3939 4.75284 10.036 4.62784C9.67803 4.49716 9.27178 4.43182 8.81723 4.43182C8.02178 4.43182 7.34848 4.625 6.79734 5.01136C6.25189 5.39773 5.83712 5.9517 5.55303 6.6733C5.27462 7.39489 5.13541 8.26136 5.13541 9.27273C5.13541 10.3409 5.27746 11.2358 5.56155 11.9574C5.85132 12.6733 6.26894 13.2131 6.81439 13.5767C7.35984 13.9347 8.01609 14.1136 8.78314 14.1136C9.22064 14.1136 9.61269 14.0597 9.95928 13.9517C10.3059 13.8381 10.607 13.6761 10.8627 13.4659C11.1184 13.2557 11.3258 13.0028 11.4848 12.7074C11.6496 12.4062 11.7604 12.0682 11.8172 11.6932L16.624 11.7273C16.5672 12.4659 16.3598 13.2187 16.0019 13.9858C15.6439 14.7472 15.1354 15.4517 14.4763 16.0994C13.8229 16.7415 13.0133 17.2585 12.0473 17.6506C11.0814 18.0426 9.95928 18.2386 8.68087 18.2386C7.07859 18.2386 5.64109 17.8949 4.36837 17.2074C3.10132 16.5199 2.09848 15.5085 1.35984 14.1733C0.62689 12.8381 0.260412 11.2045 0.260412 9.27273C0.260412 7.32955 0.635412 5.69318 1.38541 4.36364C2.13541 3.02841 3.14678 2.01989 4.4195 1.33807C5.69223 0.650568 7.11269 0.306818 8.68087 0.306818C9.78314 0.306818 10.7973 0.457386 11.7235 0.758522C12.6496 1.05966 13.4621 1.5 14.161 2.07954C14.8598 2.65341 15.4223 3.3608 15.8485 4.2017C16.2746 5.04261 16.5331 6.00568 16.624 7.09091ZM17.2489 18H12.1353L17.8967 0.545454H24.3739L30.1353 18H25.0217L21.2035 5.35227H21.0671L17.2489 18ZM16.2944 11.1136H25.908V14.6591H16.2944V11.1136ZM41.7715 7.09091H36.9647C36.9306 6.69318 36.8397 6.33239 36.692 6.00852C36.55 5.68466 36.3511 5.40625 36.0954 5.17329C35.8454 4.93466 35.5414 4.75284 35.1835 4.62784C34.8255 4.49716 34.4193 4.43182 33.9647 4.43182C33.1693 4.43182 32.496 4.625 31.9448 5.01136C31.3994 5.39773 30.9846 5.9517 30.7005 6.6733C30.4221 7.39489 30.2829 8.26136 30.2829 9.27273C30.2829 10.3409 30.425 11.2358 30.709 11.9574C30.9988 12.6733 31.4164 13.2131 31.9619 13.5767C32.5073 13.9347 33.1636 14.1136 33.9306 14.1136C34.3681 14.1136 34.7602 14.0597 35.1068 13.9517C35.4534 13.8381 35.7545 13.6761 36.0102 13.4659C36.2659 13.2557 36.4733 13.0028 36.6323 12.7074C36.7971 12.4062 36.9079 12.0682 36.9647 11.6932L41.7715 11.7273C41.7147 12.4659 41.5073 13.2187 41.1494 13.9858C40.7914 14.7472 40.2829 15.4517 39.6238 16.0994C38.9704 16.7415 38.1608 17.2585 37.1948 17.6506C36.2289 18.0426 35.1068 18.2386 33.8284 18.2386C32.2261 18.2386 30.7886 17.8949 29.5159 17.2074C28.2488 16.5199 27.246 15.5085 26.5073 14.1733C25.7744 12.8381 25.4079 11.2045 25.4079 9.27273C25.4079 7.32955 25.7829 5.69318 26.5329 4.36364C27.2829 3.02841 28.2943 2.01989 29.567 1.33807C30.8397 0.650568 32.2602 0.306818 33.8284 0.306818C34.9306 0.306818 35.9448 0.457386 36.871 0.758522C37.7971 1.05966 38.6096 1.5 39.3085 2.07954C40.0073 2.65341 40.5698 3.3608 40.996 4.2017C41.4221 5.04261 41.6806 6.00568 41.7715 7.09091Z" fill="#808080"/>
</svg>
