<svg width="40" height="40" viewBox="0 0 40 40" fill="none" xmlns="http://www.w3.org/2000/svg">
<path d="M19.9987 19.1654C18.8936 19.1654 17.8338 18.7264 17.0524 17.945C16.271 17.1636 15.832 16.1038 15.832 14.9987C15.832 13.8936 16.271 12.8338 17.0524 12.0524C17.8338 11.271 18.8936 10.832 19.9987 10.832C21.1038 10.832 22.1636 11.271 22.945 12.0524C23.7264 12.8338 24.1654 13.8936 24.1654 14.9987C24.1654 15.5459 24.0576 16.0877 23.8482 16.5932C23.6388 17.0987 23.3319 17.5581 22.945 17.945C22.5581 18.3319 22.0987 18.6388 21.5932 18.8482C21.0877 19.0576 20.5459 19.1654 19.9987 19.1654ZM19.9987 3.33203C16.9045 3.33203 13.937 4.56119 11.7491 6.74912C9.56119 8.93704 8.33203 11.9045 8.33203 14.9987C8.33203 23.7487 19.9987 36.6654 19.9987 36.6654C19.9987 36.6654 31.6654 23.7487 31.6654 14.9987C31.6654 11.9045 30.4362 8.93704 28.2483 6.74912C26.0604 4.56119 23.0929 3.33203 19.9987 3.33203Z" fill="#808080"/>
</svg>
